<?xml version="1.0" encoding="utf-8"?>
<!-- Generator: Adobe Illustrator 24.0.1, SVG Export Plug-In . SVG Version: 6.00 Build 0)  -->
<svg version="1.1" id="Capa_1" xmlns="http://www.w3.org/2000/svg" xmlns:xlink="http://www.w3.org/1999/xlink" x="0px" y="0px"
	 viewBox="0 0 850.39 850.39" style="enable-background:new 0 0 850.39 850.39;" xml:space="preserve">
<style type="text/css">
	.st0{fill:#00A9E4;}
	.st1{fill:#FF8E00;}
	.st2{fill:#FFFDFD;}
	.st3{fill:none;}
</style>
<circle class="st0" cx="432" cy="412.04" r="400"/>
<g>
	<path class="st1" d="M274.93,284.77c57.88,0,123.4,39.58,119.46,131.18c6.18,17.42,28.45,10.48,28.32,1.43
		c0-23.21,6.18-155.74-147.78-155.65c-41.58,0-145.38,19.67-144.97,159.58c-2.25,36.52,28.1,141.04,143.85,141.04
		c41.02,0,136.54-16.3,148.91-132.05c25.84,0,162.23-0.51,162.23-0.51v11.74h27.7V402.1c0,0-186.54,0.13-189.93,0
		s-23.91-1.09-28.17-0.38c2.04,17.42-6.67,137.6-122.99,136.48c-20.79-1.12-99.81-7.26-112.17-119.08
		C159.39,306.74,240.66,283.09,274.93,284.77z"/>
	<path class="st2" d="M447.8,262.42v286.91h24.11V285.79c0,0,163.21,0,177.3,0c-1.61,142.44,15.66,223.58-35.61,247.04
		c-31.9,20.77-82.16-8.16-82.16-8.16l-11.13,20.4c0,0,38.39,30.05,104.23,9.27c67.69-35.61,43.21-97.93,49.89-268.55
		c12.61,0,59.72,0,59.72,0v-23.37H447.8z"/>
</g>
<rect x="75" y="579" class="st3" width="54" height="4"/>
</svg>
